<svg width="209" height="44" viewBox="0 0 209 44" fill="none" xmlns="http://www.w3.org/2000/svg">
<path fill-rule="evenodd" clip-rule="evenodd" d="M33.9392 13.4419C34.9347 12.8837 36.1113 12.8837 37.0163 13.4419L47.5149 19.6745C48.5104 20.2326 49.0535 21.2558 49.0535 22.3721V34.7442C49.0535 35.8604 48.4199 36.8837 47.5149 37.4418L37.1068 43.5815C36.1113 44.1396 34.9347 44.1396 34.0297 43.5815L23.6217 37.4418C22.6261 36.8837 22.0831 35.8604 22.0831 34.7442V30.4651L26.8798 27.5814V31.8604C26.8798 32.9768 27.5133 34 28.4185 34.5582L33.9392 37.814C34.9347 38.3721 36.1113 38.3721 37.0163 37.814L42.5371 34.4651C43.5327 33.907 44.0758 32.8837 44.0758 31.7674V25.1628C44.0758 24.0465 43.4422 23.0233 42.5371 22.4652L37.0163 19.2093C36.0208 18.6512 34.8442 18.6512 33.9392 19.2093L26.8798 23.3953L22.0831 26.279L15.0237 30.4651C14.0283 31.0233 12.8517 31.0233 11.9466 30.4651L1.53858 24.3255C0.543028 23.7674 0 22.7442 0 21.6279V9.25581C0 8.13953 0.543028 7.11628 1.53858 6.55814L11.9466 0.418605C12.9422 -0.139535 14.1187 -0.139535 15.0237 0.418605L25.2508 6.55814C26.2464 7.11628 26.7893 8.13953 26.7893 9.25581V13.5349L21.9926 16.4186V12.1395C21.9926 11.0233 21.359 10 20.454 9.44186L14.9333 6.18604C13.9376 5.6279 12.7611 5.6279 11.8561 6.18604L6.33532 9.44186C5.33976 10 4.79674 11.0233 4.79674 12.1395V18.7441C4.79674 19.8605 5.43028 20.8838 6.33532 21.4419L11.9466 24.7907C12.9422 25.3488 14.1187 25.3488 15.0237 24.7907L22.0831 20.5116L26.8798 17.7209L33.9392 13.4419ZM68.1628 29.7725V40.0438H62.4807V10.8388H68.1628V13.1075C69.3891 11.4988 71.433 10.5088 74.09 10.5088C79.8538 10.5088 83.5329 14.7575 83.5329 21.2338C83.5329 27.71 79.5268 31.9588 73.5996 31.9588C71.2694 31.9588 69.2665 31.175 68.1628 29.7725ZM67.8358 21.2338C67.8358 24.6988 69.8388 27.0088 72.9047 27.0088C75.8886 27.0088 77.9326 24.6988 77.9326 21.2338C77.9326 17.7275 75.8886 15.4175 72.9047 15.4175C69.8388 15.4175 67.8358 17.7275 67.8358 21.2338ZM96.4352 31.9588C102.771 31.9588 107.309 27.4213 107.309 21.2338C107.309 15.0463 102.771 10.5088 96.4352 10.5088C90.0992 10.5088 85.5617 15.0463 85.5617 21.2338C85.5617 27.4213 90.0992 31.9588 96.4352 31.9588ZM96.4352 27.0088C93.3694 27.0088 91.2846 24.6575 91.2846 21.2338C91.2846 17.7688 93.3694 15.4175 96.4352 15.4175C99.5011 15.4175 101.586 17.7688 101.586 21.2338C101.586 24.6575 99.5011 27.0088 96.4352 27.0088ZM116.426 1.80469V31.6284H110.744V1.80469H116.426ZM133.506 10.8384L129.214 24.2447L124.881 10.8384H119.076L126.557 31.4634L123.532 40.0434H128.969L131.871 31.5459L139.352 10.8384H133.506ZM149.628 10.5088C152.121 10.5088 154.164 11.4575 155.31 12.9013V10.8388H161.033V32.8663C161.033 37.1975 157.925 40.0438 153.265 40.0438H142.882V35.5475H152.366C154.083 35.5475 155.351 34.1863 155.351 32.2475V29.525C154.287 31.0513 152.121 31.9588 149.709 31.9588C143.618 31.9588 139.981 27.71 139.981 21.2338C139.981 14.7575 143.618 10.5088 149.628 10.5088ZM145.58 21.2338C145.58 24.74 147.583 27.0088 150.608 27.0088C153.674 27.0088 155.678 24.74 155.678 21.2338C155.678 17.7275 153.674 15.4175 150.608 15.4175C147.583 15.4175 145.58 17.7275 145.58 21.2338ZM175.357 31.9588C181.694 31.9588 186.23 27.4213 186.23 21.2338C186.23 15.0463 181.694 10.5088 175.357 10.5088C169.021 10.5088 164.483 15.0463 164.483 21.2338C164.483 27.4213 169.021 31.9588 175.357 31.9588ZM175.357 27.0088C172.291 27.0088 170.206 24.6575 170.206 21.2338C170.206 17.7688 172.291 15.4175 175.357 15.4175C178.423 15.4175 180.507 17.7688 180.507 21.2338C180.507 24.6575 178.423 27.0088 175.357 27.0088ZM195.062 20.2438V31.6288H189.339V10.8388H195.062V13.7263C196.206 11.705 198.495 10.5088 201.315 10.5088C205.975 10.5088 209 13.8913 209 18.6763V31.6288H203.277V19.955C203.277 17.4388 201.683 15.6238 199.313 15.6238C196.819 15.6238 195.062 17.5625 195.062 20.2438Z" fill="#8E5FE5"/>
</svg>
