<svg width="171" height="52" viewBox="0 0 171 52" fill="none" xmlns="http://www.w3.org/2000/svg">
<path fill-rule="evenodd" clip-rule="evenodd" d="M35.8738 18.482L22.7478 11.0177L9.65789 18.5416V33.53L22.7839 40.9824L35.8738 33.4703V18.482ZM22.7358 0.00685311L22.7478 0H22.7238L22.7358 0.00685311ZM17.9309 2.76634L22.7358 0.00685311L27.5407 2.7425L40.6668 10.2069L45.4836 12.9493V18.4581V33.4466V38.9553L40.6668 41.7098L27.5768 49.2337L22.7598 52L17.9429 49.2575L4.8169 41.7933L0 39.0507V33.5419V18.5654V13.0567L4.8169 10.2903L17.9309 2.76634ZM110.34 15.9658C110.096 15.8683 109.835 15.8197 109.572 15.8229C109.054 15.8353 108.561 16.0482 108.199 16.4157C107.836 16.7833 107.634 17.2768 107.634 17.7904C107.634 18.309 107.842 18.8064 108.212 19.1731C108.582 19.5399 109.085 19.7459 109.609 19.7459C110.132 19.7459 110.635 19.5399 111.005 19.1731C111.376 18.8064 111.584 18.309 111.584 17.7904C111.584 17.53 111.531 17.2722 111.43 17.0319C111.329 16.7916 111.18 16.5737 110.993 16.3907C110.806 16.2076 110.584 16.0633 110.34 15.9658ZM108.091 22.2261V34.9012L111.09 34.8416V22.2261H108.091ZM79.1417 34.8409H82.1763L82.2365 27.4242C82.2048 27.0621 82.2494 26.6975 82.3676 26.3535C82.4857 26.0093 82.6747 25.6933 82.9226 25.4254C83.1706 25.1574 83.4721 24.9434 83.8079 24.7969C84.1439 24.6505 84.5068 24.5747 84.8737 24.5744C85.2436 24.5469 85.6149 24.6024 85.9601 24.7366C86.3054 24.8708 86.6155 25.0804 86.8678 25.3495C87.12 25.6187 87.3077 25.9407 87.417 26.2916C87.5263 26.6425 87.5544 27.0134 87.499 27.3764V34.8409H90.4493V26.8638C90.4493 24.0854 88.932 21.8557 85.789 21.8557C85.105 21.8325 84.4245 21.9631 83.7987 22.2378C83.173 22.5125 82.6183 22.924 82.1763 23.4416V16.0845H79.1417V34.8409ZM59.3176 22.0384C58.8685 23.1965 58.6605 24.4324 58.706 25.672C58.6328 26.9218 58.8212 28.173 59.2593 29.3473C59.6975 30.5216 60.376 31.5935 61.2523 32.4959C62.1285 33.3983 63.1836 34.1116 64.3515 34.5912C65.5193 35.0707 66.7746 35.3061 68.0388 35.2826C69.9338 35.3743 71.8036 34.821 73.3371 33.7147C74.8706 32.6084 75.9756 31.0158 76.4682 29.2016L73.5902 28.2714C73.2614 29.4598 72.539 30.5043 71.5388 31.2373C70.5386 31.9704 69.3186 32.3494 68.0748 32.3136C64.9078 32.3136 61.9213 30.1912 61.9213 25.7316C61.9213 21.2721 64.98 19.0662 68.0388 19.0662C69.2757 18.9814 70.5022 19.341 71.4931 20.0791C72.4839 20.8172 73.173 21.8843 73.4337 23.0845L76.396 22.0949C75.5531 18.8754 72.7592 16.1329 68.0388 16.1329C66.786 16.1273 65.545 16.3724 64.3902 16.8537C63.2355 17.3348 62.191 18.0422 61.3193 18.9331C60.4476 19.8241 59.7667 20.8803 59.3176 22.0384ZM97.2292 27.6157L100.493 27.1149C101.227 27.0194 101.432 26.6498 101.432 26.2086C101.432 25.1474 100.709 24.2888 99.0234 24.2888C98.6984 24.2612 98.371 24.2993 98.0612 24.4006C97.7513 24.5021 97.4655 24.6647 97.2212 24.8788C96.9767 25.093 96.779 25.354 96.6395 25.6461C96.5002 25.9382 96.4221 26.2554 96.4103 26.5782L93.6406 25.9582C93.8693 23.7762 95.8683 21.8325 98.9993 21.8325C102.925 21.8325 104.418 24.0384 104.418 26.6021V32.8622C104.411 33.5411 104.464 34.2193 104.575 34.8892H101.745C101.648 34.3584 101.607 33.8188 101.625 33.2796C101.202 33.9211 100.617 34.4423 99.9289 34.7915C99.2402 35.1407 98.4716 35.306 97.6987 35.2708C97.1601 35.3146 96.6178 35.2499 96.1051 35.0804C95.5923 34.911 95.1196 34.6402 94.7155 34.2847C94.3114 33.929 93.9842 33.496 93.754 33.0118C93.5237 32.5275 93.395 32.002 93.3756 31.4671C93.3756 29.1657 95.0495 27.9257 97.2292 27.6157ZM101.432 29.6427V29.0704L98.1083 29.5592C97.6565 29.5746 97.2282 29.7615 96.9121 30.0811C96.5959 30.4009 96.4162 30.8288 96.4103 31.2763C96.4141 31.5073 96.4663 31.735 96.5635 31.9449C96.6608 32.155 96.8011 32.3426 96.9753 32.4961C97.1497 32.6496 97.3543 32.7658 97.5762 32.837C97.7982 32.9081 98.0326 32.933 98.2649 32.9098C98.7033 32.9542 99.1463 32.8989 99.5601 32.7483C99.9739 32.5979 100.348 32.3558 100.653 32.0409C100.958 31.726 101.187 31.3464 101.322 30.9309C101.457 30.5153 101.495 30.0748 101.432 29.6427ZM118.05 34.8415H115.016V22.226H117.978V23.9073C118.362 23.2618 118.915 22.7307 119.578 22.3699C120.242 22.009 120.991 21.8316 121.747 21.8563C124.854 21.8563 126.347 24.0861 126.347 26.8644V34.8415H123.313V27.3771C123.313 25.827 122.602 24.575 120.699 24.575C120.321 24.5772 119.947 24.6589 119.602 24.8144C119.258 24.9699 118.95 25.1958 118.7 25.4772C118.45 25.7588 118.262 26.0896 118.15 26.4479C118.038 26.806 118.004 27.1837 118.05 27.556V34.8415ZM130.044 16.0845V34.8409H133.079V16.0845H130.044ZM138.498 15.8237C139.025 15.8237 139.53 16.031 139.903 16.4001C140.276 16.769 140.485 17.2694 140.485 17.7912C140.482 18.1769 140.364 18.5533 140.147 18.8731C139.929 19.1929 139.621 19.4416 139.26 19.5882C138.9 19.7347 138.504 19.7724 138.122 19.6966C137.74 19.6207 137.389 19.4348 137.114 19.1619C136.838 18.8892 136.65 18.5419 136.574 18.1636C136.497 17.7854 136.535 17.3933 136.683 17.0364C136.831 16.6796 137.082 16.3741 137.405 16.1583C137.728 15.9425 138.108 15.8261 138.498 15.8237ZM137.005 34.902V22.2269H140.015V34.8424L137.005 34.902ZM143.941 34.8415H146.976V27.556C146.928 27.1843 146.961 26.8071 147.071 26.4488C147.182 26.0905 147.367 25.7595 147.617 25.4778C147.866 25.196 148.173 24.9699 148.518 24.8143C148.861 24.6586 149.235 24.5771 149.612 24.575C149.982 24.5475 150.354 24.6031 150.699 24.7372C151.045 24.8715 151.355 25.081 151.607 25.3501C151.859 25.6194 152.047 25.9414 152.156 26.2923C152.266 26.6432 152.294 27.014 152.238 27.3771V34.8415H155.272V26.8644C155.272 24.0861 153.78 21.8563 150.661 21.8563C149.905 21.8343 149.157 22.0126 148.494 22.3733C147.831 22.734 147.277 23.2636 146.892 23.9073V22.2261H143.941V34.8415ZM165.653 27.5554L171 34.8409H167.279L163.534 29.642L161.968 31.2756V34.8527H158.957V16.0845H161.968V27.3287L166.858 22.2254H170.892L165.653 27.5554Z" fill="#375BD2"/>
</svg>
