<svg width="203" height="30" viewBox="0 0 203 30" fill="none" xmlns="http://www.w3.org/2000/svg">
<path d="M24.7521 0V29.5626H19.3479L6.4734 10.9561H6.26147V29.5626H0V0H5.49083L18.2642 18.5921H18.5243V0H24.7521Z" fill="#1C2147"/>
<path d="M28.2827 29.5626V0H47.8715V5.15325H34.5394V12.1975H46.5807V17.3507H34.5394V29.5626H28.2827Z" fill="#1C2147"/>
<path d="M50.9492 5.15325V0H75.2534V5.15325H66.1935V29.5626H60.0091V5.15325H50.9492Z" fill="#1C2147"/>
<path d="M76.8428 29.5627V7.39075H82.8104V11.24H83.0416C83.3555 10.001 84.0721 8.90101 85.079 8.11249C86.0305 7.4068 87.1886 7.03469 88.3735 7.05393C88.7067 7.05535 89.0395 7.07462 89.3705 7.11167C89.6868 7.1433 90.0006 7.19635 90.3098 7.27046V12.7461C89.915 12.637 89.5124 12.5582 89.1056 12.5103C88.6411 12.4462 88.1729 12.4124 87.704 12.4093C86.8648 12.3959 86.036 12.5963 85.2958 12.9915C84.5986 13.3701 84.0188 13.9327 83.6196 14.6178C83.2 15.3491 82.9885 16.181 83.0079 17.0236V29.5627H76.8428Z" fill="#1C2147"/>
<path d="M98.989 29.9811C97.6883 30.0042 96.3977 29.7499 95.2032 29.2353C94.1313 28.7706 93.2189 28.0029 92.5782 27.0268C91.9033 25.9293 91.5682 24.6571 91.6149 23.37C91.5792 22.2951 91.8127 21.2284 92.294 20.2665C92.7299 19.4477 93.3662 18.7525 94.1436 18.2456C94.9625 17.7183 95.8622 17.3282 96.8071 17.0908C97.8393 16.8249 98.891 16.6415 99.9523 16.5423C101.237 16.4075 102.277 16.2792 103.073 16.1573C103.676 16.0985 104.26 15.915 104.788 15.6184C104.962 15.502 105.103 15.3423 105.197 15.155C105.291 14.9677 105.334 14.7593 105.323 14.5503V14.4636C105.346 14.0686 105.282 13.6731 105.134 13.3061C104.985 12.9391 104.757 12.6096 104.465 12.3417C103.774 11.8021 102.908 11.535 102.033 11.5911C101.096 11.541 100.168 11.796 99.3887 12.3177C98.7622 12.7641 98.3041 13.4081 98.0883 14.1461L92.3952 13.6649C92.6572 12.3718 93.2439 11.1665 94.1002 10.1621C94.9916 9.14444 96.1196 8.36124 97.3851 7.88135C98.8793 7.32164 100.466 7.05059 102.062 7.08262C103.257 7.07806 104.448 7.22355 105.607 7.51566C106.685 7.7805 107.708 8.23508 108.627 8.85811C109.5 9.45504 110.215 10.254 110.712 11.1869C111.247 12.2395 111.51 13.4088 111.478 14.5888V29.5625H105.645V26.4879H105.482C105.12 27.182 104.63 27.8009 104.037 28.3115C103.404 28.8547 102.674 29.2713 101.884 29.5385C100.95 29.8471 99.9719 29.9968 98.989 29.9811ZM100.752 25.7373C101.587 25.7544 102.414 25.5678 103.16 25.1936C103.821 24.8646 104.383 24.3666 104.788 23.7501C105.183 23.1226 105.386 22.3933 105.371 21.6522V19.2849C105.126 19.4325 104.862 19.5458 104.586 19.6217C104.253 19.7228 103.878 19.8142 103.464 19.896C103.049 19.9778 102.64 20.0499 102.226 20.1125L101.099 20.2809C100.453 20.3684 99.8221 20.5382 99.2202 20.7861C98.7275 20.9813 98.2942 21.3013 97.9631 21.7148C97.6569 22.1326 97.4993 22.6407 97.5151 23.1583C97.4919 23.5302 97.5637 23.902 97.7237 24.2387C97.8838 24.5754 98.1269 24.8659 98.4303 25.0829C99.1159 25.5396 99.9283 25.7686 100.752 25.7373Z" fill="#1C2147"/>
<path d="M122.821 29.9187C121.203 29.9386 119.614 29.4853 118.25 28.6147C116.823 27.6694 115.699 26.3328 115.014 24.7654C114.163 22.7925 113.755 20.6575 113.819 18.5103C113.746 16.3295 114.166 14.1603 115.047 12.1638C115.75 10.6093 116.887 9.2909 118.323 8.36741C119.671 7.52676 121.232 7.08777 122.821 7.10196C123.894 7.0656 124.962 7.27977 125.937 7.72747C126.713 8.10116 127.402 8.63209 127.96 9.28643C128.432 9.84074 128.827 10.4557 129.136 11.1149H129.323V0H135.465V29.5626H129.396V26.0116H129.136C128.817 26.6733 128.406 27.2871 127.917 27.8352C127.345 28.4786 126.645 28.995 125.86 29.3509C124.902 29.7617 123.864 29.9556 122.821 29.9187ZM124.748 25.0204C125.658 25.0467 126.55 24.7577 127.272 24.2025C128.002 23.6012 128.552 22.8103 128.861 21.9169C129.252 20.8097 129.44 19.6409 129.415 18.467C129.44 17.2982 129.254 16.1345 128.866 15.0315C128.561 14.1453 128.01 13.3642 127.276 12.7797C126.546 12.242 125.655 11.9657 124.748 11.9954C123.826 11.9663 122.922 12.257 122.19 12.8182C121.462 13.4162 120.916 14.2064 120.615 15.0989C120.241 16.1817 120.06 17.3217 120.081 18.467C120.06 19.6272 120.245 20.782 120.625 21.8785C120.927 22.7787 121.472 23.578 122.2 24.188C122.925 24.7549 123.827 25.0494 124.748 25.0204Z" fill="#1C2147"/>
<path d="M149.794 29.9955C147.742 30.0511 145.711 29.5701 143.903 28.6001C142.275 27.6859 140.956 26.3093 140.112 24.645C139.186 22.7592 138.73 20.6775 138.783 18.5775C138.738 16.4983 139.193 14.4387 140.112 12.5726C140.951 10.9003 142.251 9.50283 143.86 8.54527C145.588 7.55315 147.555 7.05386 149.548 7.10179C150.943 7.08929 152.33 7.32555 153.642 7.79947C154.888 8.25388 156.022 8.97103 156.965 9.90215C157.954 10.8962 158.712 12.0954 159.186 13.4146C159.745 15.0026 160.014 16.678 159.98 18.361V20.0499H141.235V16.2391H154.181C154.197 15.4178 153.998 14.6067 153.603 13.8862C153.228 13.2129 152.675 12.6554 152.004 12.2743C151.283 11.8745 150.469 11.6735 149.644 11.6921C148.774 11.6741 147.916 11.8955 147.164 12.332C146.461 12.7458 145.881 13.3386 145.483 14.0498C145.072 14.7851 144.858 15.6137 144.861 16.4556V20.0643C144.831 21.0462 145.036 22.0211 145.459 22.908C145.845 23.6817 146.452 24.3244 147.202 24.7556C148.02 25.2052 148.942 25.4294 149.875 25.4052C150.513 25.4124 151.148 25.3149 151.754 25.1165C152.293 24.9366 152.786 24.6409 153.199 24.2504C153.61 23.8549 153.927 23.3712 154.124 22.8358L159.817 23.2111C159.548 24.5352 158.937 25.766 158.044 26.7813C157.102 27.832 155.923 28.6435 154.605 29.1486C153.07 29.7344 151.437 30.0218 149.794 29.9955Z" fill="#1C2147"/>
<path d="M202.963 29.375L191.249 9.1084C191.226 9.06524 191.191 9.02923 191.149 9.00414C191.106 8.97906 191.058 8.96582 191.009 8.96582C190.959 8.96582 190.911 8.97906 190.869 9.00414C190.826 9.02923 190.791 9.06524 190.768 9.1084L179.064 29.375C179.035 29.4245 179.022 29.4821 179.028 29.5391C179.034 29.5962 179.059 29.6499 179.097 29.6923C179.136 29.7347 179.187 29.7637 179.244 29.775C179.3 29.7863 179.358 29.7793 179.41 29.7551L190.903 24.7173C190.937 24.7007 190.975 24.692 191.013 24.692C191.052 24.692 191.09 24.7007 191.124 24.7173L202.616 29.7551C202.669 29.7793 202.727 29.7863 202.783 29.775C202.84 29.7637 202.891 29.7347 202.93 29.6923C202.968 29.6499 202.992 29.5962 202.999 29.5391C203.005 29.4821 202.992 29.4245 202.963 29.375Z" fill="#1571FA"/>
<path d="M190.599 0.587102L178.885 20.8537C178.862 20.8968 178.827 20.9328 178.785 20.9579C178.742 20.983 178.694 20.9962 178.645 20.9962C178.595 20.9962 178.547 20.983 178.505 20.9579C178.462 20.9328 178.427 20.8968 178.404 20.8537L166.704 0.587102C166.675 0.537894 166.661 0.480456 166.667 0.423188C166.672 0.365921 166.695 0.311827 166.734 0.268817C166.772 0.225807 166.823 0.196137 166.879 0.184146C166.935 0.172155 166.994 0.178471 167.046 0.202172L178.543 5.24475C178.577 5.26131 178.614 5.26993 178.652 5.26993C178.689 5.26993 178.726 5.26131 178.76 5.24475L190.252 0.202172C190.305 0.180176 190.363 0.175046 190.419 0.187493C190.474 0.19994 190.524 0.229347 190.563 0.271641C190.601 0.313935 190.625 0.36702 190.631 0.423542C190.638 0.480064 190.627 0.537224 190.599 0.587102Z" fill="#93C5FE"/>
</svg>
